<?xml version="1.0" encoding="UTF-8"?>
<svg id="Capa_1" xmlns="http://www.w3.org/2000/svg" version="1.1" viewBox="0 0 126 64">
  <!-- Generator: Adobe Illustrator 30.3.0, SVG Export Plug-In . SVG Version: 2.1.3 Build 182)  -->
  <defs>
    <style>
      .st0 {
        fill: #f9f9f9;
      }
    </style>
  </defs>
  <path class="st0" d="M20.43,10.62v42.68c.19.04.35.1.51.1,6.45,0,12.9.02,19.35-.05,3.23-.04,6.4-.6,9.37-1.91,6.24-2.75,9.6-7.73,10.86-14.29.59-3.06.7-6.14.24-9.24-.18-1.22.21-1.6,1.63-1.62,5.68-.06,11.36-.11,17.04-.17.23,0,.45,0,.68,0,1.66-.02,2.23-.36,2.81-1.93.76-2.05,1.44-4.13,2.17-6.19.27-.75.56-1.49.88-2.21.48-1.07,1.34-1.59,2.52-1.51,1.21.08,2.02.74,2.36,1.89.48,1.6.91,3.22,1.36,4.84.83,2.98,1.65,5.96,2.49,8.94.07.26.19.51.36.96.34-.97.6-1.75.88-2.51.66-1.78,1.7-2.54,3.59-2.56,2.47-.03,4.94-.04,7.42,0,2.16.03,3.26,1.34,2.87,3.36-.23,1.22-1.16,1.97-2.69,2.01-1.47.04-2.95-.04-4.43-.08-1.44-.04-2.44.63-3.03,1.92-.24.51-.43,1.05-.62,1.58-.71,2.01-1.37,4.03-2.13,6.02-.55,1.46-1.98,2.04-3.41,1.51-.95-.35-1.37-1.15-1.62-2.05-.68-2.49-1.35-4.98-2.03-7.48-.59-2.18-1.18-4.35-1.97-6.55-.3.84-.6,1.67-.89,2.52-.8,2.34-1.48,2.86-3.96,2.93-2.81.08-5.62.12-8.43.21-1.27.04-1.41.18-1.5,1.44-.31,4.53-1.12,8.95-3,13.13-3.24,7.22-8.68,12.09-15.97,14.98-4.27,1.7-8.75,2.47-13.32,2.51-9.89.07-19.77.04-29.66.04-1.76,0-2.61-.88-2.61-2.62,0-19.29,0-38.58,0-57.87,0-.23,0-.45,0-.68.03-1.55.83-2.38,2.38-2.38,10.43,0,20.86-.13,31.28.05,7.55.13,14.47,2.38,20.4,7.26,4.69,3.86,7.55,8.85,9.16,14.63.56,2.02.55,2.07-1.51,2.07-2.93,0-5.85-.03-8.78.03-.98.02-1.5-.32-1.87-1.22-1.03-2.51-2.37-4.84-4.35-6.76-3.18-3.09-7.03-4.74-11.37-5.32-1.85-.24-3.73-.34-5.6-.35-5.63-.04-11.25-.02-16.88-.02-.31,0-.62,0-.99,0Z"/>
  <path class="st0" d="M116.97,63.72c-.38.03-.62.07-.87.07-3.78,0-7.56-.01-11.34.03-.93,0-1.55-.35-2.05-1.1-1.11-1.65-2.27-3.26-3.38-4.91-.59-.89-1.37-1.3-2.43-1.28-3.49.05-6.99.07-10.48.12-1,.01-1.1.13-1.11,1.16,0,1.62-.03,3.24,0,4.86.02.78-.38,1.12-1.07,1.12-3.18.02-6.36.02-9.55.02-.55,0-.83-.32-.88-.84-.03-.25-.05-.51-.05-.76,0-4.77,0-9.55,0-14.32,0-1.28.14-1.41,1.42-1.41,5.91,0,11.82.04,17.73-.03,3.23-.04,6.46-.21,9.62-1.11,7.21-2.06,11.49-7.36,11.87-14.85.18-3.61-.33-7.07-2-10.33-2.48-4.82-6.46-7.54-11.75-8.28-2.3-.32-4.64-.38-6.96-.4-7.27-.05-14.55-.02-21.82,0-.83,0-1.49-.19-1.98-.91-2.13-3.09-4.95-5.45-8.02-7.54-.59-.4-1.16-.85-1.74-1.27.03-.09.06-.17.09-.26.4-.03.81-.1,1.21-.1,8.3-.01,16.59-.03,24.89-.03,4.49,0,8.98-.12,13.47.08,9.95.44,17.77,4.76,22.72,13.51,5.1,9,4.93,22.65-2.75,31.91-2.28,2.75-4.99,4.96-8.25,6.45-1.36.62-1.38.83-.5,2.04,1.91,2.61,3.8,5.25,5.69,7.87.08.11.13.25.27.52Z"/>
  <rect class="st0" y="41.81" width="24.82" height="7.47" rx="3.73" ry="3.73"/>
  <rect class="st0" x="0" y="13.92" width="24.82" height="7.47" rx="3.73" ry="3.73"/>
  <rect class="st0" y="27.87" width="24.82" height="7.47" rx="3.73" ry="3.73"/>
</svg>